<?xml version="1.0" encoding="UTF-8"?>
<svg xmlns="http://www.w3.org/2000/svg" version="1.1" viewBox="0 0 360 51.4">
  <defs>
    <style>
      .cls-1 {
        fill: #c6a22f;
      }
    </style>
  </defs>
  <!-- Generator: Adobe Illustrator 28.6.0, SVG Export Plug-In . SVG Version: 1.2.0 Build 709)  -->
  <g>
    <g id="Layer_1">
      <g>
        <path class="cls-1" d="M0,7.4l7.4,7.4,6.4-6.4h100.3c.2,3.9,1.7,7.6,4.3,11.1H52.8l-6.4-6.4-7.4,7.4,7.4,7.4,6.4-6.4h67.3c3.3,3.7,8,7.1,13.9,10.1,12.6,6.3,29.4,9.8,47.2,9.8s34.6-3.5,47.2-9.8c5.9-2.9,10.6-6.4,13.9-10.1h64.8l6.4,6.4,7.4-7.4-7.4-7.4-6.4,6.4h-63.1c2.6-3.5,4.1-7.2,4.3-11.1h97.8l6.4,6.4,7.4-7.4-7.4-7.4-6.4,6.4H13.9L7.4,0,0,7.4ZM46.4,25.1l-4.6-4.6,4.6-4.6,4.6,4.6-4.6,4.6ZM313.6,16l4.6,4.6-4.6,4.6-4.6-4.6,4.6-4.6ZM116.2,8.5h14.1l14.3,14.3-7.9,7.9c-12.2-5.6-19.9-13.5-20.5-22.2ZM222,32.3c-5.6,2.2-12,4-19,5.2l-23.1-23.1-.3.3h0s-22.4,22.4-22.4,22.4c-6.9-1.3-13.1-3.2-18.6-5.6l23.1-23.1h36.3l23.9,23.9ZM146.1,21.3l-12.9-12.9h25.7l-12.9,12.9ZM159.7,37.6l20.2-20.2,20.6,20.6c-6.1.9-12.6,1.4-19.3,1.4s-14.8-.6-21.6-1.8ZM224,31.5l-8.8-8.8,14.2-14.2h0c0,0,16.9,0,16.9,0-.6,9.2-9.1,17.4-22.3,23.1ZM352.6,2.9l4.6,4.6-4.6,4.6-4.6-4.6,4.6-4.6ZM226.7,8.5l-12.9,12.9-12.9-12.9h25.7ZM7.4,12L2.9,7.4,7.4,2.9l4.6,4.6-4.6,4.6Z"/>
        <path class="cls-1" d="M181.3,49.4c-19.3,0-37.5-4.2-50-11.5l-1,1.7c12.8,7.5,31.4,11.8,51,11.8s35.7-3.7,48.4-10.4l-.9-1.8c-12.5,6.5-29.3,10.2-47.5,10.2Z"/>
      </g>
    </g>
  </g>
</svg>