<?xml version="1.0" encoding="UTF-8"?>
<svg xmlns="http://www.w3.org/2000/svg" version="1.1" viewBox="0 0 360 51.4">
  <defs>
    <style>
      .cls-1 {
        fill: #c6a22f;
      }
    </style>
  </defs>
  <!-- Generator: Adobe Illustrator 28.6.0, SVG Export Plug-In . SVG Version: 1.2.0 Build 709)  -->
  <g>
    <g id="Layer_1">
      <g>
        <path class="cls-1" d="M360,44l-7.4-7.4-6.4,6.4h-100.3c-.2-3.9-1.7-7.6-4.3-11.1h65.7l6.4,6.4,7.4-7.4-7.4-7.4-6.4,6.4h-67.3c-3.3-3.7-8-7.1-13.9-10.1-12.6-6.3-29.4-9.8-47.2-9.8s-34.6,3.5-47.2,9.8c-5.9,2.9-10.6,6.4-13.9,10.1H52.8l-6.4-6.4-7.4,7.4,7.4,7.4,6.4-6.4h63.1c-2.6,3.5-4.1,7.2-4.3,11.1H13.9l-6.4-6.4-7.4,7.4,7.4,7.4,6.4-6.4h332.3l6.4,6.4,7.4-7.4ZM313.6,26.3l4.6,4.6-4.6,4.6-4.6-4.6,4.6-4.6ZM46.4,35.4l-4.6-4.6,4.6-4.6,4.6,4.6-4.6,4.6ZM243.8,43h-14.1l-14.3-14.3,7.9-7.9c12.2,5.6,19.9,13.5,20.5,22.2ZM138,19.1c5.6-2.2,12-4,19-5.2l23.1,23.1.3-.3h0s22.4-22.4,22.4-22.4c6.9,1.3,13.1,3.2,18.6,5.6l-23.1,23.1h-36.3l-23.9-23.9ZM213.9,30.1l12.9,12.9h-25.7l12.9-12.9ZM200.3,13.8l-20.2,20.2-20.6-20.6c6.1-.9,12.6-1.4,19.3-1.4s14.8.6,21.6,1.8ZM136,19.9l8.8,8.8-14.2,14.2h0c0,0-16.9,0-16.9,0,.6-9.2,9.1-17.4,22.3-23.1ZM7.4,48.6l-4.6-4.6,4.6-4.6,4.6,4.6-4.6,4.6ZM133.3,43l12.9-12.9,12.9,12.9h-25.7ZM352.6,39.4l4.6,4.6-4.6,4.6-4.6-4.6,4.6-4.6Z"/>
        <path class="cls-1" d="M178.7,2c19.3,0,37.5,4.2,50,11.5l1-1.7c-12.8-7.5-31.4-11.8-51-11.8s-35.7,3.7-48.4,10.4l.9,1.8c12.5-6.5,29.3-10.2,47.5-10.2Z"/>
      </g>
    </g>
  </g>
</svg>